<svg width="25" height="24" viewBox="0 0 25 24" fill="none" xmlns="http://www.w3.org/2000/svg">
<g clip-path="url(#clip0_1_333)">
<path opacity="0.2" fill-rule="evenodd" clip-rule="evenodd" d="M16.3154 4C15.593 4.50713 15.0034 5.18088 14.5966 5.9642C14.1898 6.74753 13.9777 7.61734 13.9784 8.5C13.9784 9.83 14.4504 11.05 15.2354 12H4.97839C4.71318 12 4.45882 12.1054 4.27129 12.2929C4.08375 12.4804 3.97839 12.7348 3.97839 13V14C3.97839 14.2652 4.08375 14.5196 4.27129 14.7071C4.45882 14.8946 4.71318 15 4.97839 15H20.9784C21.2436 15 21.498 14.8946 21.6855 14.7071C21.873 14.5196 21.9784 14.2652 21.9784 14V13.4C22.776 12.9917 23.4624 12.3956 23.9784 11.663V18C23.9784 18.5304 23.7677 19.0391 23.3926 19.4142C23.0175 19.7893 22.5088 20 21.9784 20H3.97839C3.44796 20 2.93925 19.7893 2.56418 19.4142C2.18911 19.0391 1.97839 18.5304 1.97839 18V6C1.97839 5.46957 2.18911 4.96086 2.56418 4.58579C2.93925 4.21071 3.44796 4 3.97839 4H16.3154ZM23.0224 4.293C23.2614 4.495 23.4824 4.717 23.6844 4.956C23.519 4.68594 23.2922 4.45877 23.0224 4.293Z" fill="#D6D6D6"/>
<path opacity="0.4" fill-rule="evenodd" clip-rule="evenodd" d="M14.5784 6C14.1051 6.92493 13.9046 7.96542 14.0004 9H1.97839V6H14.5784Z" fill="#D6D6D6"/>
<path fill-rule="evenodd" clip-rule="evenodd" d="M19.4784 14C18.0197 14 16.6208 13.4205 15.5893 12.3891C14.5579 11.3576 13.9784 9.95869 13.9784 8.5C13.9784 7.04131 14.5579 5.64236 15.5893 4.61091C16.6208 3.57946 18.0197 3 19.4784 3C20.9371 3 22.336 3.57946 23.3675 4.61091C24.3989 5.64236 24.9784 7.04131 24.9784 8.5C24.9784 9.95869 24.3989 11.3576 23.3675 12.3891C22.336 13.4205 20.9371 14 19.4784 14ZM17.2944 6.221H16.6734L15.1574 6.991V7.777L16.3594 7.149V10.779H17.3024V6.22H17.2944V6.221ZM19.1014 6.85C19.5494 6.85 19.8634 7.101 19.8634 7.463C19.8634 7.856 19.4934 8.131 18.9594 8.131H18.7244V8.799H19.0074C19.5724 8.799 19.9574 9.081 19.9574 9.49C19.9574 9.883 19.5804 10.15 19.0464 10.15C18.6534 10.15 18.2604 10.024 17.8524 9.78V10.566C18.2924 10.755 18.7324 10.857 19.1644 10.857C20.1934 10.857 20.9004 10.331 20.9004 9.569C20.9004 9.034 20.5704 8.602 20.0204 8.429C20.4924 8.272 20.7984 7.856 20.7984 7.384C20.7984 6.646 20.1464 6.143 19.2034 6.143C18.7782 6.14762 18.3584 6.23845 17.9694 6.41V7.18C18.3474 6.968 18.7324 6.85 19.1014 6.85ZM22.4954 8.563C23.0694 8.563 23.4694 8.901 23.4694 9.341C23.4694 9.804 23.0694 10.126 22.4954 10.126C22.1494 10.126 21.7884 10.016 21.4194 9.789V10.598C21.8044 10.771 22.1974 10.858 22.5824 10.858C22.7864 10.858 22.9744 10.826 23.1554 10.778C23.5755 10.0982 23.7984 9.3151 23.7994 8.516L23.7844 8.186C23.4922 8.01277 23.157 7.92543 22.8174 7.934C22.6675 7.93346 22.5177 7.94415 22.3694 7.966V6.944H23.5014C23.4031 6.69245 23.2819 6.45044 23.1394 6.221H21.5524V8.696C21.8601 8.61331 22.1768 8.56864 22.4954 8.563Z" fill="#D6D6D6"/>
</g>
<defs>
<clipPath id="clip0_1_333">
<rect width="24" height="24" fill="white" transform="translate(0.978394)"/>
</clipPath>
</defs>
</svg>
